<svg width="44" height="53" viewBox="0 0 44 53" fill="none" xmlns="http://www.w3.org/2000/svg">
<path d="M43.3655 31.0991L39.4555 21.3242L43.3655 11.5493C43.5569 11.0709 43.4984 10.5288 43.2096 10.1022C42.9207 9.6755 42.439 9.41992 41.9238 9.41992H23.8086V5.79688C23.8086 4.93935 23.1134 4.24414 22.2559 4.24414H3.10547V1.55273C3.10547 0.695211 2.41026 0 1.55273 0C0.695211 0 0 0.695211 0 1.55273C0 8.04492 0 45.9367 0 51.4473C0 52.3048 0.695211 53 1.55273 53C2.41026 53 3.10547 52.3048 3.10547 51.4473V28.0527H15.5273V31.6758C15.5273 32.5235 16.2181 33.2285 17.0801 33.2285H41.9238C42.4391 33.2285 42.9207 32.9729 43.2096 32.5462C43.4985 32.1197 43.5569 31.5775 43.3655 31.0991ZM20.7031 24.9473C18.9249 24.9473 5.02434 24.9473 3.10547 24.9473V7.34961H20.7031C20.7031 9.1278 20.7031 23.0284 20.7031 24.9473ZM20.8287 30.123L23.3535 27.5982C23.6502 27.3017 23.8086 26.8938 23.8086 26.5V12.5254H39.6304L36.3415 20.7475C36.1935 21.1177 36.1935 21.5307 36.3415 21.901L39.6304 30.123H20.8287Z" fill="#696969"/>
</svg>
