<svg width="28" height="28" viewBox="0 0 28 28" fill="none" xmlns="http://www.w3.org/2000/svg">
<g clip-path="url(#clip0)">
<path d="M14 28C21.732 28 28 21.732 28 14C28 6.26801 21.732 0 14 0C6.26801 0 0 6.26801 0 14C0 21.732 6.26801 28 14 28Z" fill="#87DCFF"/>
<path d="M15.6302 0.0975342L15.0522 1.89828C14.9123 2.33409 14.5619 2.66982 14.1204 2.79084L12.6705 3.18836C12.5538 3.22035 12.4333 3.2366 12.3123 3.2366H10.1427C9.91637 3.2366 9.72502 3.40416 9.69511 3.62849L9.44628 5.49464L8.0605 5.56721C7.82747 5.57941 7.64214 5.7671 7.63284 6.00023L7.58488 7.20461C7.57405 7.47581 7.80319 7.69521 8.07362 7.67268L8.99686 7.59574C9.2342 7.57594 9.45098 7.453 9.58978 7.25946L10.4436 6.06859L12.2698 6.00335C12.6604 5.9894 12.9363 6.38239 12.7945 6.7466C12.4763 7.5638 12.4759 7.6338 12.4759 7.70566C12.4759 7.95531 12.6779 8.15727 12.9275 8.15727C13.1506 8.15727 13.3363 7.99496 13.3725 7.78239C13.4033 7.67832 13.5412 7.31749 13.7218 6.85943C13.7972 6.66813 14.057 6.63996 14.1703 6.81157L14.2871 6.98827C14.503 7.31503 14.9049 7.46542 15.2822 7.36069L16.0886 7.13691C16.3134 7.07457 16.4949 6.90864 16.5771 6.69039L16.7318 6.28001C16.841 5.99022 17.0911 5.77661 17.3944 5.714L17.9156 5.60642C18.2702 5.53325 18.6462 5.74768 18.708 6.10452C18.771 6.46907 18.5149 6.80025 18.159 6.84105L16.9024 6.87479C16.6468 6.88168 16.4415 7.08758 16.4355 7.34319L16.4326 7.4635C16.4303 7.56014 16.4836 7.64955 16.5697 7.69346L17.2923 8.06217C17.5674 8.20249 17.6571 8.55228 17.4834 8.80767C17.3879 8.94816 17.2291 9.03221 17.0592 9.03221H13.2478C13.1481 9.03221 13.0492 9.01346 12.9564 8.97687L9.75816 7.71698C9.52147 7.62374 9.25236 7.67421 9.06555 7.84686L6.03662 10.6463C5.79518 10.8695 5.69406 11.2063 5.77265 11.5255L6.38848 14.0273C6.48353 14.4135 6.81997 14.692 7.21705 14.7134L10.6294 14.8968C11.3008 14.9329 11.8442 15.456 11.9058 16.1255L12.1647 18.9357C12.184 19.1459 12.2394 19.3486 12.3307 19.5391C12.6183 20.1389 13.2887 21.5024 13.6614 21.9738C14.1412 22.5807 15.3234 22.6047 15.7218 22.2419L18.4963 19.9716C18.7282 19.7605 18.8797 19.4755 18.9249 19.1652L19.25 16.9355L21.4532 14.5075C21.6678 14.2709 21.5714 13.9082 21.2983 13.791L21.2588 13.8174C21.0917 13.9294 20.8989 13.9973 20.6996 14.015C20.6643 14.0181 20.6291 14.0199 20.5938 14.0199C20.1854 14.0199 19.8066 13.8126 19.5865 13.4624L17.9044 10.7915C17.7717 10.5803 17.8352 10.3015 18.046 10.1683C18.2586 10.0365 18.536 10.0995 18.6692 10.3099L20.3512 12.9813C20.409 13.0739 20.5113 13.1242 20.6207 13.1153C20.6688 13.1109 20.716 13.0942 20.7565 13.0673L23.0302 11.8213C23.2671 11.6914 23.3299 11.3793 23.1615 11.168C23.0679 11.0505 22.9203 10.9895 22.7711 11.0066L22.2935 11.0615C22.1652 11.0763 22.0368 11.0354 21.9405 10.9493L20.5104 9.67009C20.3248 9.50384 20.3089 9.21848 20.4752 9.03238C20.641 8.84628 20.9263 8.83085 21.1129 8.9971L22.3918 10.1411L23.169 10.0516C23.33 10.0317 23.4896 10.1023 23.5853 10.2338L23.7348 10.4384L24.4922 10.3475C24.8603 10.3033 25.218 10.4885 25.3944 10.8146L26.9239 13.6427C27.0348 13.8479 27.2209 14.0022 27.4431 14.0733L27.9933 14.2665C27.9949 14.1776 28 14.0894 28 14.0001C28 6.81983 22.5936 0.905597 15.6302 0.0975342ZM21.4785 7.82564C21.4014 7.87814 21.3131 7.90324 21.2262 7.90324C21.0812 7.90324 20.9387 7.83357 20.8518 7.70435L19.9111 6.312C19.7713 6.10561 19.8255 5.82468 20.0324 5.68528C20.2383 5.54501 20.5201 5.60019 20.6591 5.80658L21.5998 7.19892C21.7396 7.40531 21.6853 7.68624 21.4785 7.82564Z" fill="#BEE86E"/>
<path d="M18.5914 23.4086C10.8594 23.4086 4.5914 17.1406 4.5914 9.40862C4.5914 6.71909 5.35134 4.20773 6.66597 2.07465C2.66689 4.53936 0 8.95756 0 14C0 21.732 6.26801 28 14 28C19.0425 28 23.4607 25.3331 25.9254 21.334C23.7923 22.6487 21.281 23.4086 18.5914 23.4086Z" fill="#00C3FF"/>
<path d="M20.0963 21.3952C19.994 21.3952 19.8908 21.3603 19.8062 21.2894C19.6152 21.1288 19.5905 20.8439 19.751 20.653L20.9365 19.2417C21.0966 19.0512 21.3819 19.026 21.5729 19.1866C21.7639 19.3471 21.7886 19.632 21.628 19.823L20.4426 21.2342C20.3534 21.3405 20.2251 21.3952 20.0963 21.3952Z" fill="#BEE86E"/>
<path d="M10.1485 0.540901L9.74673 1.73812C9.66733 1.97453 9.7948 2.23074 10.0312 2.31015C10.0788 2.32601 10.1274 2.3335 10.175 2.3335C10.3638 2.3335 10.5397 2.21445 10.6032 2.02567L11.1882 0.282776C10.8361 0.354471 10.4904 0.443229 10.1485 0.540901Z" fill="#BEE86E"/>
<path d="M2.34468 21.7553L2.73542 18.2053C2.76665 17.9267 2.66668 17.6493 2.46488 17.4547L0.0547485 15.2009C0.259717 17.6117 1.0733 19.8484 2.34468 21.7553Z" fill="#AFD755"/>
<path d="M14 0C13.4935 0 12.9938 0.0283828 12.5012 0.0808281L12.4542 1.14051C12.336 1.49554 12.5274 1.87923 12.8825 1.99741C12.9534 2.0212 13.0258 2.03224 13.0968 2.03224C13.3803 2.03224 13.645 1.85276 13.7394 1.56915L14.2602 0.0065625C14.1733 0.00497656 14.0873 0 14 0Z" fill="#BEE86E"/>
</g>
<defs>
<clipPath id="clip0">
<rect width="28" height="28" fill="white"/>
</clipPath>
</defs>
</svg>
