<svg width="86" height="76" viewBox="0 0 86 76" fill="none" xmlns="http://www.w3.org/2000/svg">
<path d="M13.1709 70.7203C33.6709 83.2203 50.1709 66.2203 57.6709 58.2203L63.171 19.2203L35.6709 1.72033C-12.8291 -11.7797 -2.82897 58.2203 13.1709 70.7203Z" fill="url(#paint0_linear)"/>
<path d="M57.9677 52.2707C59.5248 51.866 60.6835 50.4611 60.6835 48.7782C60.6835 46.7813 59.0595 45.1573 57.0625 45.1573C56.064 45.1573 55.252 44.3453 55.252 43.3468C55.252 42.3483 56.064 41.5363 57.0625 41.5363C58.061 41.5363 58.873 42.3483 58.873 43.3468H60.6835C60.6835 41.664 59.5248 40.259 57.9677 39.8544V37.9153H56.1573V39.8544C54.6002 40.259 53.4415 41.664 53.4415 43.3468C53.4415 45.3438 55.0655 46.9678 57.0625 46.9678C58.061 46.9678 58.873 47.7798 58.873 48.7782C58.873 49.7767 58.061 50.5887 57.0625 50.5887C56.064 50.5887 55.252 49.7767 55.252 48.7782H53.4415C53.4415 50.4611 54.6002 51.866 56.1573 52.2707V54.2097H57.9677V52.2707Z" fill="#A0D334"/>
<path d="M57.0625 34.2944C50.5737 34.2944 45.2943 39.5737 45.2943 46.0625H47.1048C47.1048 40.5722 51.5722 36.1049 57.0625 36.1049V34.2944Z" fill="#A0D334"/>
<path d="M67.0202 46.0625C67.0202 51.5528 62.5528 56.0202 57.0625 56.0202V57.8306C63.5513 57.8306 68.8306 52.5513 68.8306 46.0625H67.0202Z" fill="#A0D334"/>
<path d="M47.648 24.4852C44.8101 25.7244 42.2763 27.4888 40.1173 29.7283L41.4199 30.9857C43.4142 28.9181 45.7533 27.2887 48.3731 26.1436L47.648 24.4852Z" fill="#A0D334"/>
<path d="M51.4147 23.2087C50.7774 23.3653 50.1438 23.55 49.53 23.7573L50.1112 25.4728C50.676 25.2817 51.2608 25.1116 51.8474 24.9658L51.4147 23.2087Z" fill="#A0D334"/>
<path d="M55.1814 22.6005C54.5631 22.6493 53.9294 22.7254 53.2985 22.8259L53.5846 24.6137C54.1675 24.5196 54.7523 24.4499 55.3226 24.4064L55.1814 22.6005Z" fill="#A0D334"/>
<path d="M57.0625 19.8105C64.0754 19.8105 70.6674 22.5416 75.6254 27.4996C75.9649 27.8391 76.5659 27.8391 76.9054 27.4996L78.7883 25.6167V32.4839H71.9211L73.7054 30.6996C74.0593 30.3457 74.0593 29.7736 73.7054 29.4196C69.2597 24.974 63.3494 22.5262 57.0625 22.5262V24.3367C62.5627 24.3367 67.7516 26.3672 71.7718 30.0732L69.0959 32.7491C68.837 33.008 68.7591 33.3973 68.8994 33.7358C69.0398 34.0744 69.3702 34.2944 69.7359 34.2944H79.6935C80.1932 34.2944 80.5988 33.8897 80.5988 33.3891V23.4315C80.5988 23.0657 80.3779 22.7344 80.0403 22.595C79.6999 22.4529 79.3124 22.5316 79.0535 22.7914L76.2554 25.5895C71.0367 20.6886 64.2565 18 57.0625 18C41.5892 18 29 30.5883 29 46.0625H30.8105C30.8105 31.5877 42.5868 19.8105 57.0625 19.8105Z" fill="#A0D334"/>
<path d="M74.0086 62.3967L72.706 61.1393C70.7117 63.2069 68.3726 64.8364 65.7528 65.9815L66.4779 67.6399C69.3158 66.4006 71.8487 64.6363 74.0086 62.3967Z" fill="#A0D334"/>
<path d="M62.7103 68.9162C63.3476 68.7596 63.9813 68.575 64.595 68.3677L64.0138 66.6522C63.449 66.8432 62.8642 67.0134 62.2776 67.1592L62.7103 68.9162Z" fill="#A0D334"/>
<path d="M58.9436 69.5245C59.5619 69.4757 60.1955 69.3996 60.8265 69.2991L60.5404 67.5113C59.9575 67.6054 59.3727 67.6751 58.8024 67.7186L58.9436 69.5245Z" fill="#A0D334"/>
<path d="M83.3145 46.0625C83.3145 60.5373 71.5382 72.3145 57.0625 72.3145C50.0496 72.3145 43.4576 69.5834 38.4996 64.6254C38.1601 64.2859 37.5591 64.2859 37.2196 64.6254L35.3367 66.5083V59.6411H42.2039L40.4196 61.4254C40.0657 61.7793 40.0657 62.3514 40.4196 62.7054C44.8653 67.151 50.7756 69.5988 57.0625 69.5988V67.7883C51.5623 67.7883 46.3734 65.7578 42.3532 62.0518L45.0291 59.3759C45.288 59.117 45.3659 58.7277 45.2256 58.3892C45.0852 58.0506 44.7548 57.8306 44.3891 57.8306H34.4315C33.9318 57.8306 33.5262 58.2353 33.5262 58.7359V68.6935C33.5262 69.0593 33.7471 69.3906 34.0847 69.53C34.4233 69.6712 34.8126 69.5925 35.0715 69.3336L37.8696 66.5355C43.0883 71.4364 49.8685 74.125 57.0625 74.125C72.5358 74.125 85.125 61.5367 85.125 46.0625H83.3145Z" fill="#A0D334"/>
<path d="M72.4516 46.0625C72.4516 37.5768 65.5482 30.6734 57.0625 30.6734C48.5768 30.6734 41.6734 37.5768 41.6734 46.0625C41.6734 54.5483 48.5768 61.4516 57.0625 61.4516C65.5482 61.4516 72.4516 54.5483 72.4516 46.0625ZM57.0625 59.6411C49.5752 59.6411 43.4839 53.5498 43.4839 46.0625C43.4839 38.5753 49.5752 32.4839 57.0625 32.4839C64.5498 32.4839 70.6411 38.5753 70.6411 46.0625C70.6411 53.5498 64.5498 59.6411 57.0625 59.6411Z" fill="#A0D334"/>
<defs>
<linearGradient id="paint0_linear" x1="-8.20564e-08" y1="31" x2="55.5" y2="34.5" gradientUnits="userSpaceOnUse">
<stop offset="0.353258" stop-color="#ACD64B" stop-opacity="0.21"/>
<stop offset="1" stop-color="#C4C4C4" stop-opacity="0"/>
</linearGradient>
</defs>
</svg>
