<svg width="80" height="76" viewBox="0 0 80 76" fill="none" xmlns="http://www.w3.org/2000/svg">
<path d="M13.1709 70.7203C33.6709 83.2203 50.1709 66.2203 57.6709 58.2203L63.171 19.2203L35.6709 1.72033C-12.8291 -11.7797 -2.82897 58.2203 13.1709 70.7203Z" fill="url(#paint0_linear)"/>
<path d="M28.5555 66.3502L37.1214 71.2846L43.7087 59.8768L35.1506 54.929L28.5555 66.3502Z" fill="#A0D334"/>
<path d="M29.4703 74.6582C31.8404 76.0188 34.8636 75.2164 36.2376 72.844L27.6651 67.9002C26.2965 70.2673 27.1089 73.2962 29.4703 74.6582Z" fill="#A0D334"/>
<path d="M67.8184 25.4097L71.9597 26.7501L68.1344 30.4828C66.4678 26.905 63.7415 23.7831 60.0744 21.6613C50.5598 16.1764 38.3522 19.4422 32.8595 28.9522C27.3732 38.4581 30.6431 50.6657 40.157 56.1527C49.6633 61.6383 61.8716 58.3815 67.3595 48.8565C69.2921 45.513 70.1179 41.8376 69.9906 38.2338L66.6147 40.7532C66.3688 42.966 65.681 45.1644 64.4969 47.2123C59.9191 55.1479 49.747 57.8889 41.8006 53.3011C33.8626 48.7129 31.142 38.5368 35.7188 30.6008C40.3033 22.6644 50.4878 19.9364 58.4205 24.512C61.8466 26.4911 64.2917 29.5137 65.603 32.9485L57.5847 40.7742L51.8618 37.7096L45.649 45.5064L38.7067 42.4605L45.649 48.4286L52.1957 43.0206L57.0998 45.9932L75.8584 31.9847L76.7125 36.248L80 24.0667L67.8184 25.4097Z" fill="#A0D334"/>
<defs>
<linearGradient id="paint0_linear" x1="-8.20564e-08" y1="31" x2="55.5" y2="34.5" gradientUnits="userSpaceOnUse">
<stop offset="0.353258" stop-color="#ACD64B" stop-opacity="0.21"/>
<stop offset="1" stop-color="#C4C4C4" stop-opacity="0"/>
</linearGradient>
</defs>
</svg>
