<svg width="83" height="76" viewBox="0 0 83 76" fill="none" xmlns="http://www.w3.org/2000/svg">
<path d="M13.1709 70.7203C33.6709 83.2203 50.1709 66.2203 57.6709 58.2203L63.171 19.2203L35.6709 1.72033C-12.8291 -11.7797 -2.82897 58.2203 13.1709 70.7203Z" fill="url(#paint0_linear)"/>
<mask id="path-2-inside-1" fill="white">
<path fill-rule="evenodd" clip-rule="evenodd" d="M54.7123 47.4547H82.2282C80.7897 32.9469 69.2201 21.4385 54.7123 20V47.4547Z"/>
</mask>
<path d="M82.2282 47.4547V48.4547H83.3323L83.2233 47.356L82.2282 47.4547ZM54.7123 47.4547H53.7123V48.4547H54.7123V47.4547ZM54.7123 20L54.8109 19.0049L53.7123 18.8959V20H54.7123ZM82.2282 46.4547H54.7123V48.4547H82.2282V46.4547ZM54.6136 20.9951C68.6499 22.3869 79.8418 33.5225 81.2331 47.5534L83.2233 47.356C81.7375 32.3713 69.7903 20.4902 54.8109 19.0049L54.6136 20.9951ZM55.7123 47.4547V20H53.7123V47.4547H55.7123Z" fill="#A3D334" mask="url(#path-2-inside-1)"/>
<line x1="51.6232" y1="24.7535" x2="51.6232" y2="51.0731" stroke="#A3D334"/>
<line x1="76.2465" y1="50.3768" x2="51.1232" y2="50.3768" stroke="#A3D334"/>
<path fill-rule="evenodd" clip-rule="evenodd" d="M52.3196 24.7815C51.9231 24.7629 51.5243 24.7535 51.1232 24.7535C37.2481 24.7535 26 36.0016 26 49.8768C26 63.752 37.2481 75 51.1232 75C64.9984 75 76.2465 63.752 76.2465 49.8768H75.2465C75.2465 63.1997 64.4461 74 51.1232 74C37.8003 74 27 63.1997 27 49.8768C27 36.5539 37.8003 25.7535 51.1232 25.7535C51.5244 25.7535 51.9232 25.7633 52.3196 25.7827V24.7815Z" fill="#A3D334"/>
<defs>
<linearGradient id="paint0_linear" x1="-8.20564e-08" y1="31" x2="55.5" y2="34.5" gradientUnits="userSpaceOnUse">
<stop offset="0.353258" stop-color="#ACD64B" stop-opacity="0.21"/>
<stop offset="1" stop-color="#C4C4C4" stop-opacity="0"/>
</linearGradient>
</defs>
</svg>
