<svg width="85" height="76" viewBox="0 0 85 76" fill="none" xmlns="http://www.w3.org/2000/svg">
<path d="M13.1709 70.7203C33.6709 83.2203 50.1709 66.2203 57.6709 58.2203L63.171 19.2203L35.6709 1.72033C-12.8291 -11.7797 -2.82897 58.2203 13.1709 70.7203Z" fill="url(#paint0_linear)"/>
<path d="M47.2507 46.3542H30.4478V47.6146H47.2507V46.3542Z" fill="#A3D334"/>
<path d="M46.0627 37.1875H30.4478V38.4479H46.0627V37.1875Z" fill="#A3D334"/>
<path d="M45.4898 28.0208H29.875V29.2813H45.4898V28.0208Z" fill="#A3D334"/>
<path d="M55.8853 55.5208H30.4478V56.7812H55.8853V55.5208Z" fill="#A3D334"/>
<path d="M57.6041 64.6876H30.4478V65.948H57.6041V64.6876Z" fill="#A3D334"/>
<path d="M61.3945 32.1595C54.4152 31.1722 47.9342 36.0469 46.9469 43.0262C45.9596 50.0055 50.8343 56.4865 57.8136 57.4738C64.7929 58.4611 71.274 53.5864 72.2612 46.6071C73.2485 39.6278 68.3739 33.1467 61.3945 32.1595ZM58.0242 55.9847C51.8654 55.1135 47.5647 49.3957 48.436 43.2368C49.3072 37.0779 55.025 32.7773 61.1839 33.6485C67.3428 34.5197 71.6434 40.2376 70.7722 46.3965C69.901 52.5553 64.1831 56.856 58.0242 55.9847Z" fill="#A3D334"/>
<path d="M79.3807 69.8613L67.4363 53.9807C67.187 53.6493 66.715 53.5825 66.3835 53.8318C66.0521 54.0811 65.9853 54.5531 66.2346 54.8846L78.179 70.7651C78.3045 70.9302 78.4848 71.0301 78.6754 71.0571C78.866 71.084 79.0669 71.0381 79.2318 70.914C79.5633 70.6647 79.63 70.1927 79.3807 69.8613Z" fill="#A3D334"/>
<path fill-rule="evenodd" clip-rule="evenodd" d="M63.0648 29.4353C63.2336 29.6085 63.3273 29.8414 63.3251 30.0833H63.3333V33.0624H61.5V31H55.0833C53.5645 31 52.3333 29.7688 52.3333 28.25V21.8333H25.75C25.2438 21.8333 24.8333 22.2438 24.8333 22.75V72.25C24.8333 72.7562 25.2438 73.1667 25.75 73.1667H60.5833C61.0896 73.1667 61.5 72.7562 61.5 72.25V55.9791H63.3333V72.25C63.3333 73.7688 62.1021 75 60.5833 75H25.75C24.2312 75 23 73.7688 23 72.25V22.75C23 21.2312 24.2312 20 25.75 20H53.25V20.0082C53.4921 20.0048 53.7256 20.0985 53.8981 20.2686L63.0648 29.4353ZM60.2038 29.1667L54.1667 23.1295V28.25C54.1667 28.7562 54.5771 29.1667 55.0833 29.1667H60.2038Z" fill="#A3D334"/>
<defs>
<linearGradient id="paint0_linear" x1="-8.20564e-08" y1="31" x2="55.5" y2="34.5" gradientUnits="userSpaceOnUse">
<stop offset="0.353258" stop-color="#ACD64B" stop-opacity="0.21"/>
<stop offset="1" stop-color="#C4C4C4" stop-opacity="0"/>
</linearGradient>
</defs>
</svg>
