<svg width="48" height="52" viewBox="0 0 48 52" fill="none" xmlns="http://www.w3.org/2000/svg">
<path d="M9.68127 10.3118C17.3585 3.36725 28.8477 3.26107 36.6311 9.60032L30.4617 9.83393C29.6653 9.86578 29.0494 10.5241 29.0813 11.3205C29.1132 12.0957 29.7503 12.7009 30.5148 12.7009C30.536 12.7009 30.5467 12.7009 30.5679 12.7009L40.0396 12.3505C40.8148 12.3187 41.42 11.6922 41.42 10.917V10.8108C41.42 10.7896 41.42 10.779 41.42 10.7577V10.7471L41.0696 1.38159C41.0378 0.5852 40.3688 -0.0306735 39.583 0.00118204C38.7866 0.0330376 38.1708 0.691386 38.2026 1.48777L38.4256 7.35981C34.5711 4.20611 29.8246 2.37973 24.7489 2.12489C18.4628 1.80633 12.4209 3.96189 7.75932 8.18806C1.34574 13.9964 -1.3726 22.831 0.666156 31.2409C0.825434 31.8992 1.40945 32.3346 2.05718 32.3346C2.17399 32.3346 2.28017 32.3239 2.39697 32.2921C3.16151 32.101 3.63934 31.3258 3.44821 30.5613C1.6643 23.1708 4.04284 15.4086 9.68127 10.3118Z" fill="white"/>
<path d="M46.8779 20.7604C46.6868 19.9958 45.9117 19.518 45.1471 19.7091C44.3826 19.9003 43.9048 20.6754 44.0959 21.44C45.8904 28.8304 43.5013 36.5926 37.8628 41.6895C33.9021 45.2679 28.9327 47.0306 23.9844 47.0306C19.2592 47.0306 14.5446 45.4272 10.7431 42.2629L16.9868 41.7001C17.7726 41.6257 18.3566 40.9355 18.2823 40.1392C18.208 39.3428 17.5177 38.7694 16.7214 38.8437L7.2815 39.6932C6.49573 39.7675 5.91171 40.4577 5.98604 41.2541L6.83552 50.694C6.89923 51.4373 7.52572 52 8.2584 52C8.30087 52 8.34335 52 8.38582 51.9894C9.17159 51.9151 9.75561 51.2249 9.68128 50.4285L9.17159 44.6839C13.0261 47.8057 17.7514 49.6215 22.7952 49.8763C23.1987 49.8976 23.6022 49.9082 23.995 49.9082C29.8458 49.9082 35.4099 47.7632 39.7848 43.8132C46.1984 38.0048 48.9167 29.1809 46.8779 20.7604Z" fill="white"/>
</svg>
