<svg width="38" height="38" viewBox="0 0 38 38" fill="none" xmlns="http://www.w3.org/2000/svg">
<path d="M10.4174 14.3277C11.5286 19.5314 14.2892 24.2727 18.2464 27.8413L22.7578 25.2276C23.3115 24.9069 23.998 24.9337 24.513 25.2789C26.1671 26.3611 28.0402 27.2069 30.0482 27.7417C30.9388 27.9789 31.4734 28.9017 31.2362 29.7923L29.731 35.4437C29.4937 36.3344 28.571 36.869 27.6803 36.6318C12.4749 32.5818 3.43406 16.9766 7.48398 1.77118C7.7212 0.88055 8.64398 0.345941 9.5346 0.583157L15.2022 2.09271C16.0929 2.32993 16.6275 3.25271 16.3903 4.14333C15.8511 6.16749 15.6574 8.19693 15.7735 10.1702C15.8007 10.7844 15.5029 11.3814 14.9288 11.714L10.4174 14.3277Z" fill="white"/>
</svg>
