<svg width="54" height="54" viewBox="0 0 54 54" fill="none" xmlns="http://www.w3.org/2000/svg">
<path d="M52.1972 35.2208L47.3655 32.5546L52.1976 29.8874C53.265 29.2982 53.902 28.2185 53.9017 26.9993C53.9015 25.7807 53.2642 24.7019 52.1974 24.1134L47.3645 21.4465L52.1973 18.7792C53.2643 18.1902 53.9015 17.111 53.9015 15.8923C53.9015 14.6736 53.2643 13.5944 52.1973 13.0055L48.4948 10.9619C48.1127 10.7508 47.6314 10.8897 47.4202 11.2721C47.2092 11.6545 47.3481 12.1356 47.7305 12.3467L51.4329 14.3904C51.9882 14.6968 52.3197 15.2583 52.3197 15.8924C52.3197 16.5265 51.9882 17.088 51.4329 17.3944L29.3622 29.5761C27.8524 30.4092 26.0494 30.4092 24.5396 29.5761L2.46886 17.3943C1.91355 17.0879 1.58216 16.5264 1.58216 15.8923C1.58216 15.2582 1.91355 14.6967 2.46886 14.3903L24.5399 2.20846C26.0496 1.3744 27.8521 1.3744 29.3622 2.20857L44.9615 10.8186C45.3437 11.0296 45.8251 10.8907 46.0361 10.5083C46.2472 10.1258 46.1083 9.64477 45.7258 9.43362L30.1268 0.823949C28.1382 -0.274632 25.7637 -0.274632 23.7754 0.823844L1.70462 13.0055C0.637464 13.5944 0.000422001 14.6736 0.000422001 15.8923C0.000422001 17.111 0.637464 18.1902 1.70462 18.7792L6.53728 21.4465L1.7044 24.1133C0.637464 24.7019 0.000211059 25.7807 1.17813e-07 26.9993C-0.000316294 28.2185 0.636726 29.2982 1.70419 29.8874L6.53633 32.5546L1.7043 35.2209C0.637359 35.8104 0.000422001 36.8899 0.000422001 38.1085C0.000422001 39.3273 0.637359 40.4068 1.70462 40.9965L10.2599 45.7186C10.381 45.7854 10.512 45.8172 10.6413 45.8172C10.9201 45.8172 11.1903 45.6695 11.3345 45.4083C11.5455 45.0259 11.4066 44.5448 11.0242 44.3336L2.46928 39.6118C1.91387 39.3049 1.58216 38.7429 1.58227 38.1085C1.58227 37.4741 1.91387 36.9122 2.46896 36.6055L8.17323 33.4579L23.7748 42.0693C24.7693 42.6184 25.86 42.8928 26.951 42.8928C28.0418 42.8928 29.133 42.6182 30.1271 42.0694L45.7289 33.4579L51.4328 36.6054C51.9883 36.9122 52.3199 37.4741 52.3199 38.1085C52.3199 38.7429 51.9883 39.3049 51.4331 39.6116L29.3624 51.7922C27.8528 52.6252 26.0494 52.6253 24.5389 51.7922L13.7944 45.8618C13.412 45.6508 12.9308 45.7897 12.7198 46.172C12.5086 46.5544 12.6476 47.0355 13.0299 47.2466L23.7745 53.1772C24.7691 53.7258 25.86 54 26.9508 54C28.0416 54 29.1325 53.7257 30.1265 53.1771L52.1976 40.9964C53.2645 40.407 53.9015 39.3274 53.9015 38.1086C53.9016 36.8899 53.2645 35.8104 52.1972 35.2208ZM29.3626 40.6846C27.8526 41.5183 26.0493 41.5183 24.539 40.6846L2.46864 28.5027C1.91313 28.196 1.58164 27.6341 1.58174 26.9997C1.58185 26.3658 1.91324 25.8046 2.46843 25.4984L8.17397 22.35L23.7754 30.9609C24.7696 31.5096 25.8602 31.7839 26.9509 31.7839C28.0416 31.7839 29.1322 31.5096 30.1265 30.9609L45.7278 22.35L51.4335 25.4985C51.9886 25.8046 52.3199 26.3658 52.32 26.9997C52.3203 27.6341 51.9887 28.1961 51.4333 28.5027L29.3626 40.6846Z" fill="#696969"/>
</svg>
