<svg width="56" height="53" viewBox="0 0 56 53" fill="none" xmlns="http://www.w3.org/2000/svg">
<path d="M6.98125 25.2901C5.4502 25.2901 3.97752 26.0752 2.94225 27.4415C2.52791 27.9906 1.76175 28.2238 1.11695 28.0063C0.449787 27.7818 0.00149536 27.1594 0.00149536 26.4566V12.1752C0.00149536 11.2734 0.735767 10.5401 1.63694 10.5401H12.3201C11.9472 9.71186 11.7538 8.83546 11.7538 7.94357C11.7538 3.56307 16.4493 0 22.2207 0C27.9928 0 32.6892 3.56307 32.6892 7.94357C32.6892 8.83546 32.4963 9.71197 32.1228 10.5401H42.8052C43.7066 10.5401 44.4396 11.274 44.4396 12.1752V21.933C45.3089 21.5164 46.2351 21.3018 47.1843 21.3018C51.5655 21.3019 55.1286 25.9976 55.1286 31.7695C55.1286 37.5415 51.5648 42.2369 47.1845 42.2369C46.2352 42.2369 45.309 42.022 44.4397 41.6057V51.3652C44.4397 52.267 43.7062 53 42.8053 53H30.7966C29.8948 53 29.1615 52.2657 29.1615 51.3652C29.1615 50.9429 29.3252 50.5381 29.614 50.2344C30.0591 49.6349 30.2843 49.0166 30.2843 48.3968C30.2843 45.7423 26.4109 43.5 21.8247 43.5C17.2398 43.5 13.3657 45.7416 13.3657 48.3968C13.3657 49.0572 13.6206 49.7142 14.1236 50.3496C14.5107 50.8378 14.5847 51.5157 14.3134 52.0773C14.0422 52.6387 13.4645 53 12.8407 53H1.63545C0.733704 53 3.8147e-06 52.2657 3.8147e-06 51.3652V37.0832C3.8147e-06 36.3808 0.448872 35.7582 1.11409 35.5345C1.76427 35.3162 2.52768 35.5494 2.93995 36.0959C3.97603 37.465 5.44871 38.2493 6.98045 38.2493C9.9835 38.2493 12.4271 35.3419 12.4271 31.7702C12.4273 28.1981 9.98361 25.2901 6.98125 25.2901ZM14.5101 31.7695C14.5101 36.4905 11.1322 40.3317 6.98057 40.3317C5.17225 40.3317 3.44056 39.592 2.08317 38.2671V50.9172H11.9927C11.5214 50.115 11.2841 49.2703 11.2841 48.3956C11.2841 44.482 15.9136 41.4158 21.8256 41.4158C27.7377 41.4158 32.368 44.482 32.368 48.3956C32.368 49.2696 32.1297 50.1143 31.6591 50.9172H42.3582V37.3231L44.0956 38.8826C45.0218 39.7138 46.0901 40.1539 47.1857 40.1539C50.4178 40.1539 53.047 36.3928 53.047 31.7694C53.047 27.1458 50.418 23.3847 47.1857 23.3847C46.09 23.3847 45.0218 23.8244 44.0956 24.6561L42.3582 26.2156V12.623H27.9855L29.4406 10.9076C30.2045 10.0078 30.6079 8.98298 30.6079 7.94288C30.6079 4.71145 26.8461 2.08237 22.2222 2.08237C17.5993 2.08237 13.8383 4.71145 13.8383 7.94288C13.8383 8.98206 14.2418 10.0078 15.0052 10.9076L16.4604 12.623H2.08593V25.2728C3.44343 23.9479 5.17512 23.2071 6.98332 23.2071C11.1322 23.2071 14.5101 27.0482 14.5101 31.7695Z" fill="#696969"/>
</svg>
