<svg width="52" height="52" viewBox="0 0 52 52" fill="none" xmlns="http://www.w3.org/2000/svg">
<path d="M26.1234 2.03125L26.1948 2.03165H26.2035C26.7601 2.03165 27.214 1.58255 27.2188 1.02475C27.2235 0.463776 26.7724 0.00515747 26.2119 0.000396729L26.1404 0C26.1373 0 26.1345 0 26.1317 0C25.5747 0 25.1209 0.449097 25.1161 1.00729C25.1117 1.56827 25.5624 2.02649 26.1234 2.03125Z" fill="white"/>
<path d="M4.67188 25.9996C4.67188 37.7603 14.2398 47.3278 26 47.3278C37.7602 47.3278 47.3281 37.7603 47.3281 25.9996C47.3281 14.2394 37.7602 4.67151 26 4.67151C14.2398 4.67151 4.67188 14.2394 4.67188 25.9996ZM45.2969 25.9996C45.2969 36.6403 36.6403 45.2965 26 45.2965C15.3597 45.2965 6.70312 36.6403 6.70312 25.9996C6.70312 15.3594 15.3597 6.70276 26 6.70276C36.6403 6.70276 45.2969 15.3594 45.2969 25.9996Z" fill="white"/>
<path d="M46.0872 9.49094C42.3266 4.91983 37.0814 1.74243 31.3185 0.544311C30.7707 0.430847 30.2315 0.782745 30.1172 1.33221C30.003 1.88129 30.3561 2.41885 30.9052 2.53311C41.9513 4.82977 49.9688 14.6988 49.9688 25.9996C49.9688 39.2162 39.2166 49.9684 26 49.9684C12.7834 49.9684 2.03125 39.2162 2.03125 25.9996C2.03125 14.3929 10.3074 4.47351 21.7106 2.4137C22.2624 2.31412 22.629 1.78567 22.5294 1.23383C22.4294 0.681976 21.9014 0.315002 21.3495 0.414977C15.4308 1.48376 10.0229 4.61792 6.12192 9.23981C2.17407 13.9176 0 19.8698 0 25.9996C0 32.9447 2.7045 39.4737 7.6152 44.3848C12.5259 49.2955 19.0553 51.9996 26 51.9996C32.9447 51.9996 39.4741 49.2951 44.3848 44.3848C49.2955 39.4737 52 32.9447 52 25.9996C52 19.9884 49.9001 14.1251 46.0872 9.49094Z" fill="white"/>
<path d="M24.9975 9.71631C24.9975 9.98331 25.1062 10.2444 25.295 10.4344C25.485 10.6232 25.7461 10.7319 26.0131 10.7319C26.2813 10.7319 26.5423 10.6232 26.7312 10.4344C26.9212 10.2444 27.0299 9.98331 27.0299 9.71631C27.0299 9.44891 26.9212 9.18707 26.7312 8.99823C26.5431 8.80939 26.2813 8.70068 26.0131 8.70068C25.7461 8.70068 25.4843 8.8082 25.295 8.99823C25.1062 9.18707 24.9975 9.44812 24.9975 9.71631Z" fill="white"/>
<path d="M25.9869 41.2677C25.7187 41.2677 25.4565 41.3764 25.2688 41.5652C25.0788 41.7541 24.9713 42.0163 24.9713 42.2833C24.9713 42.5515 25.0788 42.8126 25.2688 43.0014C25.4577 43.191 25.7187 43.299 25.9869 43.299C26.2539 43.299 26.515 43.191 26.7046 43.0014C26.8938 42.8126 27.0025 42.5503 27.0025 42.2833C27.0025 42.0163 26.8938 41.7553 26.7046 41.5652C26.5157 41.3764 26.2539 41.2677 25.9869 41.2677Z" fill="white"/>
<path d="M42.2833 27.0287C42.5507 27.0287 42.8126 26.9208 43.0014 26.732C43.1914 26.542 43.299 26.2809 43.299 26.0131C43.299 25.7457 43.1914 25.4839 43.0014 25.295C42.8126 25.1062 42.5515 24.9983 42.2833 24.9983C42.0163 24.9983 41.7545 25.1062 41.5656 25.295C41.3764 25.4847 41.2677 25.7457 41.2677 26.0131C41.2677 26.2801 41.3764 26.542 41.5656 26.732C41.7553 26.9208 42.0163 27.0287 42.2833 27.0287Z" fill="white"/>
<path d="M9.71667 24.9709C9.44809 24.9709 9.18744 25.0789 8.9986 25.2677C8.80856 25.4565 8.70105 25.7184 8.70105 25.9866C8.70105 26.2536 8.80856 26.5158 8.9986 26.7047C9.18744 26.8935 9.44849 27.0022 9.71667 27.0022C9.98367 27.0022 10.2455 26.8935 10.4344 26.7047C10.6232 26.5158 10.7323 26.2536 10.7323 25.9866C10.7323 25.7184 10.6236 25.4565 10.4344 25.2677C10.2455 25.0785 9.98367 24.9709 9.71667 24.9709Z" fill="white"/>
<path d="M17.8698 10.8751C17.6028 10.8751 17.3406 10.9838 17.1518 11.1727C16.9629 11.3615 16.8542 11.6237 16.8542 11.8907C16.8542 12.1577 16.9629 12.42 17.1518 12.6088C17.3406 12.7977 17.6028 12.9064 17.8698 12.9064C18.1368 12.9064 18.3991 12.7977 18.5879 12.6088C18.7768 12.42 18.8855 12.1577 18.8855 11.8907C18.8855 11.6237 18.7768 11.3615 18.5879 11.1727C18.3991 10.9838 18.1368 10.8751 17.8698 10.8751Z" fill="white"/>
<path d="M34.1302 39.0933C33.8632 39.0933 33.6009 39.202 33.4121 39.3908C33.2232 39.5797 33.1145 39.8415 33.1145 40.1089C33.1145 40.3759 33.2232 40.6381 33.4121 40.827C33.6009 41.0158 33.8632 41.1245 34.1302 41.1245C34.3972 41.1245 34.6594 41.0158 34.8482 40.827C35.0371 40.6381 35.1458 40.3759 35.1458 40.1089C35.1458 39.8415 35.0371 39.5797 34.8482 39.3908C34.6594 39.202 34.3972 39.0933 34.1302 39.0933Z" fill="white"/>
<path d="M40.1093 18.8855C40.3763 18.8855 40.6381 18.7768 40.8269 18.5876C41.0158 18.3987 41.1249 18.1369 41.1249 17.8699C41.1249 17.6025 41.0162 17.3406 40.8269 17.1518C40.6381 16.963 40.3763 16.8542 40.1093 16.8542C39.8419 16.8542 39.58 16.9626 39.3912 17.1518C39.2023 17.3406 39.0936 17.6025 39.0936 17.8699C39.0936 18.1369 39.2019 18.3987 39.3912 18.5876C39.58 18.7768 39.8419 18.8855 40.1093 18.8855Z" fill="white"/>
<path d="M11.8907 33.1141C11.6237 33.1141 11.3619 33.2228 11.1731 33.4117C10.9838 33.6005 10.8751 33.8628 10.8751 34.1298C10.8751 34.3968 10.9838 34.659 11.1731 34.8478C11.3619 35.0367 11.6237 35.1454 11.8907 35.1454C12.1581 35.1454 12.42 35.0367 12.6088 34.8478C12.7977 34.659 12.9064 34.3968 12.9064 34.1298C12.9064 33.8628 12.7981 33.6005 12.6088 33.4117C12.42 33.2228 12.1589 33.1141 11.8907 33.1141Z" fill="white"/>
<path d="M11.9042 16.8308C11.6368 16.8308 11.375 16.9391 11.1862 17.1284C10.9973 17.3172 10.8886 17.5782 10.8886 17.8464C10.8886 18.1134 10.9969 18.3745 11.1862 18.5641C11.3762 18.753 11.6368 18.8621 11.9042 18.8621C12.1724 18.8621 12.4335 18.7534 12.6219 18.5641C12.812 18.3745 12.9199 18.1134 12.9199 17.8464C12.9199 17.5782 12.812 17.3172 12.6219 17.1284C12.4335 16.9395 12.1724 16.8308 11.9042 16.8308Z" fill="white"/>
<path d="M40.0958 35.1688C40.3632 35.1688 40.625 35.0601 40.8138 34.8713C41.0027 34.6824 41.1114 34.4202 41.1114 34.1532C41.1114 33.8862 41.0027 33.624 40.8138 33.4351C40.625 33.2463 40.3632 33.1376 40.0958 33.1376C39.8276 33.1376 39.5665 33.2463 39.3777 33.4351C39.188 33.624 39.0801 33.8862 39.0801 34.1532C39.0801 34.4202 39.188 34.6824 39.3777 34.8713C39.5657 35.0601 39.8276 35.1688 40.0958 35.1688Z" fill="white"/>
<path d="M34.1532 12.9194C34.4206 12.9194 34.6824 12.8115 34.8712 12.6227C35.0613 12.433 35.1688 12.1708 35.1688 11.9038C35.1688 11.6368 35.0613 11.3746 34.8712 11.1857C34.6824 10.9969 34.4206 10.8882 34.1532 10.8882C33.8862 10.8882 33.6243 10.9969 33.4355 11.1857C33.2466 11.3746 33.1375 11.6368 33.1375 11.9038C33.1375 12.1708 33.2462 12.433 33.4355 12.6227C33.6243 12.8119 33.8862 12.9194 34.1532 12.9194Z" fill="white"/>
<path d="M17.8464 39.0801C17.5782 39.0801 17.3176 39.1876 17.1284 39.3776C16.9395 39.5665 16.8308 39.8275 16.8308 40.0957C16.8308 40.3627 16.9395 40.6245 17.1284 40.8134C17.3176 41.0026 17.5786 41.1113 17.8464 41.1113C18.1138 41.1113 18.3757 41.0026 18.5645 40.8134C18.7534 40.6237 18.8621 40.3627 18.8621 40.0957C18.8621 39.8283 18.7534 39.5665 18.5645 39.3776C18.3757 39.1876 18.1138 39.0801 17.8464 39.0801Z" fill="white"/>
<path d="M34.3611 16.2151L27.8424 22.7341C27.2977 22.4255 26.6693 22.2485 26 22.2485C25.3339 22.2485 24.7087 22.4239 24.1659 22.7294L21.0496 19.6131C20.6529 19.2167 20.0102 19.2167 19.6131 19.6131C19.2167 20.0098 19.2167 20.6529 19.6131 21.0496L22.7294 24.1655C22.4239 24.7083 22.2489 25.3339 22.2489 25.9996C22.2489 28.0682 23.9315 29.7511 26 29.7511C28.0686 29.7511 29.7511 28.0682 29.7511 25.9996C29.7511 25.3371 29.5777 24.7146 29.275 24.1739L35.7976 17.6516C36.1939 17.2549 36.1939 16.6118 35.7976 16.2151C35.4009 15.8188 34.7578 15.8188 34.3611 16.2151ZM26 27.7198C25.0514 27.7198 24.2802 26.9482 24.2802 25.9996C24.2802 25.0514 25.0514 24.2798 26 24.2798C26.9486 24.2798 27.7198 25.0514 27.7198 25.9996C27.7198 26.9482 26.9486 27.7198 26 27.7198Z" fill="white"/>
<path d="M30.4255 34.5309H21.6003C21.0393 34.5309 20.5847 34.9859 20.5847 35.5465C20.5847 36.1075 21.0393 36.5621 21.6003 36.5621H30.4255C30.9865 36.5621 31.4411 36.1075 31.4411 35.5465C31.4411 34.9859 30.9865 34.5309 30.4255 34.5309Z" fill="white"/>
</svg>
